<svg xmlns="http://www.w3.org/2000/svg" width="36" height="36" viewBox="0 0 36 36">
    <path id="Icon_simple-javascript" data-name="Icon simple-javascript" d="M0,0H36V36H0ZM33.051,27.414c-.263-1.642-1.332-3.023-4.5-4.309-1.1-.517-2.331-.878-2.7-1.71a1.771,1.771,0,0,1-.069-1.058,1.719,1.719,0,0,1,2.273-.99,2.44,2.44,0,0,1,1.464,1.35c1.551-1.014,1.551-1.014,2.632-1.687a6.191,6.191,0,0,0-.879-1.17,5.038,5.038,0,0,0-4.251-1.551l-1.058.133A4.835,4.835,0,0,0,23.4,17.929a4.706,4.706,0,0,0,.854,6.706c2.048,1.53,5.042,1.866,5.424,3.307.36,1.755-1.305,2.318-2.949,2.115a3.949,3.949,0,0,1-2.632-2L21.35,29.631a6.066,6.066,0,0,0,1.215,1.663c2.61,2.634,9.135,2.5,10.306-1.506a5.077,5.077,0,0,0,.111-2.475l.069.1ZM19.576,16.546H16.2c0,2.907-.014,5.8-.014,8.708,0,1.848.094,3.545-.207,4.066-.495,1.034-1.77.9-2.349.72a2.894,2.894,0,0,1-1.245-1.282,1.287,1.287,0,0,0-.191-.294L9.462,30.151a5.306,5.306,0,0,0,1.986,2.275,6.6,6.6,0,0,0,4.81.607,4.213,4.213,0,0,0,2.716-2.117c.765-1.4.6-3.1.6-5.019.018-3.081,0-6.163,0-9.269l.006-.084Z"/>
</svg>
