<svg xmlns="http://www.w3.org/2000/svg" width="36" height="36" viewBox="0 0 36 36">
    <path id="Icon_simple-typescript" data-name="Icon simple-typescript" d="M0,18V36H36V0H0Zm29.011-1.434a4.476,4.476,0,0,1,2.251,1.3,5.82,5.82,0,0,1,.863,1.155c.012.045-1.554,1.095-2.5,1.684-.035.022-.173-.126-.326-.354a2.042,2.042,0,0,0-1.692-1.017c-1.092-.075-1.794.5-1.788,1.451a1.32,1.32,0,0,0,.153.675c.24.5.687.8,2.085,1.4,2.579,1.11,3.681,1.84,4.367,2.88a5.225,5.225,0,0,1,.417,4.389,4.819,4.819,0,0,1-3.983,2.85,10.985,10.985,0,0,1-2.742-.027,6.62,6.62,0,0,1-3.663-1.91,6.341,6.341,0,0,1-.937-1.388,2.371,2.371,0,0,1,.33-.212c.162-.091.767-.441,1.338-.772l1.035-.6.218.321A4.836,4.836,0,0,0,25.8,29.7a3.341,3.341,0,0,0,3.5-.177,1.562,1.562,0,0,0,.2-2c-.279-.4-.851-.735-2.473-1.44A8.9,8.9,0,0,1,23.64,24a4.747,4.747,0,0,1-.989-1.8,7.24,7.24,0,0,1-.063-2.3,4.386,4.386,0,0,1,3.691-3.417,9.112,9.112,0,0,1,2.732.08Zm-8.451,1.5.012,1.475H15.885V32.858H12.57V19.544H7.887V18.1a14.387,14.387,0,0,1,.039-1.485c.018-.024,2.869-.036,6.326-.03l6.293.018Z"/>
</svg>
